<svg width="1280" height="640" viewBox="0 0 1280 640" fill="none" xmlns="http://www.w3.org/2000/svg">
  <defs>
    <linearGradient id="heroBg" x1="90" y1="60" x2="1180" y2="580" gradientUnits="userSpaceOnUse">
      <stop stop-color="#081019"/>
      <stop offset="1" stop-color="#102536"/>
    </linearGradient>
    <linearGradient id="heroGlowA" x1="858" y1="72" x2="1120" y2="286" gradientUnits="userSpaceOnUse">
      <stop stop-color="#FF8A3D"/>
      <stop offset="1" stop-color="#E15038"/>
    </linearGradient>
    <linearGradient id="heroGlowB" x1="120" y1="390" x2="386" y2="610" gradientUnits="userSpaceOnUse">
      <stop stop-color="#19C6A3"/>
      <stop offset="1" stop-color="#1282A0"/>
    </linearGradient>
    <filter id="heroShadow" x="0" y="0" width="1280" height="640" filterUnits="userSpaceOnUse" color-interpolation-filters="sRGB">
      <feDropShadow dx="0" dy="18" stdDeviation="24" flood-color="#02070C" flood-opacity="0.32"/>
    </filter>
  </defs>

  <rect width="1280" height="640" rx="28" fill="url(#heroBg)"/>
  <circle cx="1024" cy="124" r="142" fill="url(#heroGlowA)" fill-opacity="0.86"/>
  <circle cx="216" cy="548" r="146" fill="url(#heroGlowB)" fill-opacity="0.42"/>

  <g opacity="0.18">
    <path d="M84 96H610" stroke="#8ABBC0" stroke-width="1.5"/>
    <path d="M84 144H610" stroke="#8ABBC0" stroke-width="1.5"/>
    <path d="M84 192H610" stroke="#8ABBC0" stroke-width="1.5"/>
    <path d="M84 240H610" stroke="#8ABBC0" stroke-width="1.5"/>
    <path d="M84 288H610" stroke="#8ABBC0" stroke-width="1.5"/>
    <path d="M84 336H610" stroke="#8ABBC0" stroke-width="1.5"/>
    <path d="M84 384H610" stroke="#8ABBC0" stroke-width="1.5"/>
    <path d="M84 432H610" stroke="#8ABBC0" stroke-width="1.5"/>
    <path d="M84 480H610" stroke="#8ABBC0" stroke-width="1.5"/>
    <path d="M84 528H610" stroke="#8ABBC0" stroke-width="1.5"/>
    <path d="M120 72V560" stroke="#8ABBC0" stroke-width="1.5"/>
    <path d="M216 72V560" stroke="#8ABBC0" stroke-width="1.5"/>
    <path d="M312 72V560" stroke="#8ABBC0" stroke-width="1.5"/>
    <path d="M408 72V560" stroke="#8ABBC0" stroke-width="1.5"/>
    <path d="M504 72V560" stroke="#8ABBC0" stroke-width="1.5"/>
    <path d="M600 72V560" stroke="#8ABBC0" stroke-width="1.5"/>
  </g>

  <text x="86" y="116" fill="#9CD5C9" font-family="Helvetica, Arial, sans-serif" font-size="18" font-weight="700" letter-spacing="5">ARIS / OPENCODE + CODEX</text>
  <text x="84" y="194" fill="#F6EEDC" font-family="Georgia, 'Times New Roman', serif" font-size="66" font-weight="700">Research that</text>
  <text x="84" y="266" fill="#F6EEDC" font-family="Georgia, 'Times New Roman', serif" font-size="66" font-weight="700">ends in a paper</text>
  <text x="88" y="334" fill="#C2D8D6" font-family="Helvetica, Arial, sans-serif" font-size="24">Ideas, computation, review loops, and prose that</text>
  <text x="88" y="368" fill="#C2D8D6" font-family="Helvetica, Arial, sans-serif" font-size="24">still sounds like it belongs to a real researcher.</text>

  <g filter="url(#heroShadow)">
    <rect x="724" y="88" width="458" height="464" rx="30" fill="#081720" fill-opacity="0.76" stroke="#6F8C95" stroke-opacity="0.28"/>
    <rect x="766" y="130" width="158" height="158" rx="22" fill="#112530" stroke="#7DD0B7" stroke-opacity="0.3"/>
    <rect x="982" y="130" width="158" height="158" rx="22" fill="#1C2F42" stroke="#F2A062" stroke-opacity="0.35"/>
    <rect x="766" y="344" width="158" height="158" rx="22" fill="#163640" stroke="#82B8F3" stroke-opacity="0.32"/>
    <rect x="982" y="344" width="158" height="158" rx="22" fill="#2A2237" stroke="#E97B66" stroke-opacity="0.35"/>
  </g>

  <g>
    <circle cx="846" cy="170" r="18" fill="#7DD0B7"/>
    <path d="M834 170H858" stroke="#08222B" stroke-width="3" stroke-linecap="round"/>
    <path d="M846 158V182" stroke="#08222B" stroke-width="3" stroke-linecap="round"/>
    <text x="796" y="224" fill="#F6EEDC" font-family="Georgia, 'Times New Roman', serif" font-size="32" font-weight="700">Idea</text>
    <text x="792" y="252" fill="#BED4D1" font-family="Helvetica, Arial, sans-serif" font-size="17">Find a direction worth</text>
    <text x="792" y="274" fill="#BED4D1" font-family="Helvetica, Arial, sans-serif" font-size="17">spending a week on.</text>
  </g>

  <g>
    <circle cx="1062" cy="170" r="18" fill="#F2A062"/>
    <path d="M1046 180L1057 164L1066 172L1078 156" stroke="#112533" stroke-width="3" stroke-linecap="round" stroke-linejoin="round"/>
    <text x="999" y="224" fill="#F6EEDC" font-family="Georgia, 'Times New Roman', serif" font-size="32" font-weight="700">Compute</text>
    <text x="1008" y="252" fill="#D8E0E8" font-family="Helvetica, Arial, sans-serif" font-size="17">Generate results from</text>
    <text x="1012" y="274" fill="#D8E0E8" font-family="Helvetica, Arial, sans-serif" font-size="17">actual code and runs.</text>
  </g>

  <g>
    <circle cx="846" cy="384" r="18" fill="#82B8F3"/>
    <path d="M833 384H859" stroke="#08222B" stroke-width="3" stroke-linecap="round"/>
    <path d="M840 374L833 384L840 394" stroke="#08222B" stroke-width="3" stroke-linecap="round" stroke-linejoin="round"/>
    <path d="M852 374L859 384L852 394" stroke="#08222B" stroke-width="3" stroke-linecap="round" stroke-linejoin="round"/>
    <text x="784" y="438" fill="#F6EEDC" font-family="Georgia, 'Times New Roman', serif" font-size="32" font-weight="700">Review</text>
    <text x="793" y="466" fill="#D2E0E8" font-family="Helvetica, Arial, sans-serif" font-size="17">Fresh criticism drives</text>
    <text x="805" y="488" fill="#D2E0E8" font-family="Helvetica, Arial, sans-serif" font-size="17">the next revision.</text>
  </g>

  <g>
    <circle cx="1062" cy="384" r="18" fill="#E97B66"/>
    <rect x="1048" y="372" width="28" height="24" rx="4" stroke="#1F1730" stroke-width="3"/>
    <path d="M1054 380H1070" stroke="#1F1730" stroke-width="3" stroke-linecap="round"/>
    <path d="M1054 388H1066" stroke="#1F1730" stroke-width="3" stroke-linecap="round"/>
    <text x="1009" y="438" fill="#F6EEDC" font-family="Georgia, 'Times New Roman', serif" font-size="32" font-weight="700">Paper</text>
    <text x="1007" y="466" fill="#F0D8D2" font-family="Helvetica, Arial, sans-serif" font-size="17">Leave behind code, data,</text>
    <text x="1017" y="488" fill="#F0D8D2" font-family="Helvetica, Arial, sans-serif" font-size="17">figures, score, and PDF.</text>
  </g>

  <g>
    <rect x="86" y="470" width="170" height="46" rx="23" fill="#163E40"/>
    <rect x="270" y="470" width="184" height="46" rx="23" fill="#E78C48"/>
    <rect x="468" y="470" width="142" height="46" rx="23" fill="#2A8D8A"/>
    <text x="116" y="499" fill="#F6EEDC" font-family="Helvetica, Arial, sans-serif" font-size="18" font-weight="700">PURE CODEX</text>
    <text x="304" y="499" fill="#131F28" font-family="Helvetica, Arial, sans-serif" font-size="18" font-weight="700">PAPERREVIEW</text>
    <text x="505" y="499" fill="#F6EEDC" font-family="Helvetica, Arial, sans-serif" font-size="18" font-weight="700">BIOWULF</text>
  </g>
</svg>
