<svg width="1280" height="740" viewBox="0 0 1280 740" fill="none" xmlns="http://www.w3.org/2000/svg">
  <defs>
    <linearGradient id="exBg2" x1="100" y1="60" x2="1180" y2="660" gradientUnits="userSpaceOnUse">
      <stop stop-color="#F7E9D1"/>
      <stop offset="1" stop-color="#E5EEE8"/>
    </linearGradient>
    <linearGradient id="bio" x1="88" y1="198" x2="382" y2="626" gradientUnits="userSpaceOnUse">
      <stop stop-color="#154645"/>
      <stop offset="1" stop-color="#28695E"/>
    </linearGradient>
    <linearGradient id="theory" x1="492" y1="198" x2="788" y2="626" gradientUnits="userSpaceOnUse">
      <stop stop-color="#274A66"/>
      <stop offset="1" stop-color="#4E7392"/>
    </linearGradient>
    <linearGradient id="human" x1="896" y1="198" x2="1192" y2="626" gradientUnits="userSpaceOnUse">
      <stop stop-color="#7E4B30"/>
      <stop offset="1" stop-color="#B06D42"/>
    </linearGradient>
  </defs>

  <rect width="1280" height="740" rx="28" fill="url(#exBg2)"/>
  <text x="86" y="104" fill="#173733" font-family="Georgia, 'Times New Roman', serif" font-size="54" font-weight="700">One repo,</text>
  <text x="86" y="154" fill="#173733" font-family="Georgia, 'Times New Roman', serif" font-size="54" font-weight="700">three research moods</text>
  <text x="88" y="196" fill="#4A6862" font-family="Helvetica, Arial, sans-serif" font-size="24">The examples should feel different in temperament without losing the workflow spine.</text>

  <g>
    <rect x="88" y="198" width="308" height="430" rx="28" fill="url(#bio)"/>
    <text x="118" y="250" fill="#A8E2D0" font-family="Helvetica, Arial, sans-serif" font-size="17" font-weight="700" letter-spacing="3">BIOLOGY</text>
    <text x="118" y="296" fill="#F8F3E8" font-family="Georgia, 'Times New Roman', serif" font-size="38" font-weight="700">Zebrafish</text>
    <text x="118" y="326" fill="#D7E7E3" font-family="Helvetica, Arial, sans-serif" font-size="20">proteoform regimes</text>
    <rect x="118" y="364" width="248" height="132" rx="18" fill="#0E232A" fill-opacity="0.38" stroke="#82D0B8" stroke-opacity="0.32"/>
    <circle cx="170" cy="430" r="28" fill="#F1CA67"/>
    <circle cx="250" cy="404" r="22" fill="#7DD0B7"/>
    <circle cx="314" cy="452" r="18" fill="#82B8F3"/>
    <path d="M162 422L238 406L306 446" stroke="#F8F3E8" stroke-width="4" stroke-linecap="round" stroke-linejoin="round"/>
    <path d="M144 472H340" stroke="#BFD8D5" stroke-width="2" stroke-linecap="round" opacity="0.85"/>
    <text x="118" y="548" fill="#F8F3E8" font-family="Helvetica, Arial, sans-serif" font-size="20" font-weight="700">real computation</text>
    <text x="118" y="580" fill="#F8F3E8" font-family="Helvetica, Arial, sans-serif" font-size="20" font-weight="700">saved review loop</text>
  </g>

  <g>
    <rect x="486" y="198" width="308" height="430" rx="28" fill="url(#theory)"/>
    <text x="516" y="250" fill="#C4DAF2" font-family="Helvetica, Arial, sans-serif" font-size="17" font-weight="700" letter-spacing="3">THEORY</text>
    <text x="516" y="296" fill="#F8F3E8" font-family="Georgia, 'Times New Roman', serif" font-size="38" font-weight="700">Gleason note</text>
    <text x="516" y="326" fill="#DFE9F2" font-family="Helvetica, Arial, sans-serif" font-size="20">clearer staircase of ideas</text>
    <rect x="516" y="364" width="248" height="132" rx="18" fill="#122838" fill-opacity="0.42" stroke="#A9C8E2" stroke-opacity="0.34"/>
    <path d="M552 464L588 428L624 428L660 392L696 392L732 356" stroke="#F8F3E8" stroke-width="5" stroke-linecap="round" stroke-linejoin="round"/>
    <circle cx="552" cy="464" r="7" fill="#F2A062"/>
    <circle cx="588" cy="428" r="7" fill="#F2A062"/>
    <circle cx="624" cy="428" r="7" fill="#F2A062"/>
    <circle cx="660" cy="392" r="7" fill="#F2A062"/>
    <circle cx="696" cy="392" r="7" fill="#F2A062"/>
    <circle cx="732" cy="356" r="7" fill="#F2A062"/>
    <text x="516" y="548" fill="#F8F3E8" font-family="Helvetica, Arial, sans-serif" font-size="20" font-weight="700">formal note</text>
    <text x="516" y="580" fill="#F8F3E8" font-family="Helvetica, Arial, sans-serif" font-size="20" font-weight="700">saved revision rounds</text>
  </g>

  <g>
    <rect x="884" y="198" width="308" height="430" rx="28" fill="url(#human)"/>
    <text x="914" y="250" fill="#F4DAC7" font-family="Helvetica, Arial, sans-serif" font-size="17" font-weight="700" letter-spacing="3">HUMANITIES</text>
    <text x="914" y="296" fill="#FFF5EC" font-family="Georgia, 'Times New Roman', serif" font-size="38" font-weight="700">Frederick</text>
    <text x="914" y="326" fill="#F6E3D8" font-family="Helvetica, Arial, sans-serif" font-size="20">scandal, survival, memory</text>
    <rect x="914" y="364" width="248" height="132" rx="18" fill="#3B221A" fill-opacity="0.26" stroke="#FFD7BB" stroke-opacity="0.3"/>
    <path d="M948 470H1128" stroke="#FFF5EC" stroke-width="4" stroke-linecap="round"/>
    <circle cx="972" cy="470" r="10" fill="#7ED1B0"/>
    <circle cx="1040" cy="470" r="10" fill="#F1CA67"/>
    <circle cx="1108" cy="470" r="10" fill="#F08764"/>
    <path d="M972 470L1040 470L1108 470" stroke="#FFF5EC" stroke-width="4" stroke-linecap="round"/>
    <path d="M972 418L1040 470L1108 422" stroke="#FFE7D4" stroke-width="3.5" stroke-linecap="round"/>
    <text x="914" y="548" fill="#FFF5EC" font-family="Helvetica, Arial, sans-serif" font-size="20" font-weight="700">curated corpus</text>
    <text x="914" y="580" fill="#FFF5EC" font-family="Helvetica, Arial, sans-serif" font-size="20" font-weight="700">public-history package</text>
  </g>

  <text x="86" y="690" fill="#5D6E67" font-family="Helvetica, Arial, sans-serif" font-size="22">Different genres, same promise: code, figures, review history, and a paper that feels publishable.</text>
</svg>
